<svg xmlns="http://www.w3.org/2000/svg" width="718.543" height="316.75" viewBox="0 0 718.543 316.75"><defs><style>.a{fill:#dbdbdb;}.b{fill:#c31248;}.c{fill:#2f2e41;}.d{fill:#a0616a;}.e{fill:#e6e6e6;}.f{opacity:0.1;}.g{fill:#3f3d56;}.h{fill:#f50057;}.i{fill:none;stroke:#3f3d56;stroke-miterlimit:10;}.j{fill:#ffb6b6;}</style></defs><g transform="translate(230.01 -431.38)"><path class="a" d="M1376.8,3570.73s249.326-134.187,560.636-83.122-25.279,109.162-25.279,109.162l-297.52,54.36L1350.99,3607.6Z" transform="translate(-1581 -2903)"/><g transform="translate(153.554 431.38)"><rect class="b" width="46" height="49" transform="translate(11.446 54.62)"/><path class="c" d="M355.062,59.251c0,7.421-3.186,7.656-8.4,7.656S336.2,66.672,336.2,59.251,340.413,45.8,345.631,45.8,355.062,51.831,355.062,59.251Z" transform="translate(-323.167 -45.8)"/><path class="d" d="M363.9,98.359s2.224,9.3,1.411,10.308,6.865,3.229,6.865,3.229l3.229-8.9-1.818-.192s-2.63-.6-1.818-5.667S363.9,98.359,363.9,98.359Z" transform="translate(-344.944 -84.609)"/><ellipse class="d" cx="6.565" cy="6.565" rx="6.565" ry="6.565" transform="translate(15.92 3.251)"/><path class="c" d="M291.284,248.091l-4.641,4.042s-14.136,5.261-10.906,13.344,9.3,20,9.3,20l1.625,3.849h4.042l2.63-1.219-.6-1.625s-1.411-2.224-1.411-3.443-2.417-15.162-4.042-16.167c0,0,8.084-7.891,13.943-8.276s7.485-1.818,10.714,0,15.953,5.261,15.953,5.261,6.865,12.532,10.308,14.756,6.266,9.709,6.266,9.709l5.667-1.005-2.823-5.86s-2.823-4.234-2.823-6.052-9.3-19.4-15.953-22.219a45.558,45.558,0,0,1-9.9-5.432l-15.29-4.149Z" transform="translate(-275.257 -201.3)"/><path class="c" d="M289.457,438.911s-1.411-1.005-2.417,1.005-3.849,6.672-3.849,6.672-8.276,6.266-2.01,7.891c0,0,3.037.192,8.276-3.443,5.261-3.635,9.089-5.453,9.3-6.052s-1.219-7.485-2.63-7.485-1.005,3.229-2.63,3.229a18.684,18.684,0,0,0-3.443.406Z" transform="translate(-278.071 -353.734)"/><path class="c" d="M600.488,443.136a4.131,4.131,0,0,0-5.282-2.523c-.021,0-.021,0-.043.021-.321.107-.513.235-.556.364-.193.6-2.032.9-2.224.556s-1.6-1.369-.6,2.481,4.042,12.125,5.667,13.537,7.271,1.219,7.677-.192a7.16,7.16,0,0,0-1.005-5.047,18.263,18.263,0,0,1-2.417-5.453C601.579,446.258,601.044,444.676,600.488,443.136Z" transform="translate(-523.813 -355.992)"/><path class="d" d="M464.3,309.68s1.583,6.843,4.7,5.239-3.422-8.019-3.422-8.019Z" transform="translate(-423.873 -251.063)"/><path class="d" d="M383,291.68s1.583,6.843,4.7,5.239-3.422-8.019-3.422-8.019Z" transform="translate(-359.959 -236.913)"/><path class="e" d="M358.1,152.947c-2.331.727-3.871.791-4.619,1.518a1.616,1.616,0,0,0-.235.3c-.6,1.005-3.229,1.411-6.672.6a9.826,9.826,0,0,0-3.529-.257,23.111,23.111,0,0,1-4.555.257c-3.828-.192-5.667-12.746-6.544-16.1a4.654,4.654,0,0,0-.128-.47c-.813-2.417,3.443-4.854,4.042-5.453s2.417-3.037,4.106-3.293c1.668-.257,4.191,3.293,4.191,3.293s3.935-4.747,3.529-5.966,3.849-.406,4.641-.6a16.409,16.409,0,0,1,3.935.834,3.34,3.34,0,0,1,2.417,2.973c.021.321.064.684.086,1.069C359.281,138.255,360.115,152.327,358.1,152.947Z" transform="translate(-319.645 -109.385)"/><path class="f" d="M343.9,195.214a23.114,23.114,0,0,1-4.555.257c-3.828-.192-5.667-12.746-6.544-16.1.15-1.048.278-1.668.278-1.668l1.112,1.518s5.346,8.789,6.779,11.206C341.547,191.408,342.723,193.29,343.9,195.214Z" transform="translate(-320.494 -149.493)"/><path class="e" d="M330.594,173.9l-1.818.813s-2.417,12.125,1.818,18.177a51.934,51.934,0,0,0,6.672,8.084,2.282,2.282,0,0,0,2.01.813s-.813,2.01.6,2.01,6.672-2.01,5.261-2.63-2.823-1.625-2.417-2.63-4.641-8.682-6.052-11.12S330.594,173.9,330.594,173.9Z" transform="translate(-316.791 -146.506)"/><path class="f" d="M437.672,162.525c-2.331.727-3.871.791-4.619,1.518a17.5,17.5,0,0,1,.171-5.368,125.728,125.728,0,0,0,2.117-19.7c0-.342.064.192.406.192v.192c1.5,0,1.925-.535,2.331.9.086.278.171.6.257.941C438.849,147.833,439.683,161.9,437.672,162.525Z" transform="translate(-399.213 -118.963)"/><path class="e" d="M437.968,134.2h.62a3.368,3.368,0,0,1,3.229,2.417,68.219,68.219,0,0,1,1.8,8.3c1.219,7.485,2.63,26.069,2.417,26.475s2.417,2.417,1.219,2.823-3.443,1.219-4.448,1.411-3.037-1.818-3.037-1.818-4.234-12.724-2.823-18.8S437.968,134.2,437.968,134.2Z" transform="translate(-402.138 -115.296)"/><path class="c" d="M360.2,56.457c0,2.01-2.759,3.635-6.159,3.635s-6.544,1.069-6.544-.941,3.122-6.351,6.544-6.351S360.2,54.447,360.2,56.457Z" transform="translate(-332.051 -51.303)"/><path class="c" d="M336.5,114.6s-.257,6.758,6.48,6.394-.92-5.8-.92-5.8Z" transform="translate(-323.399 -99.887)"/></g><g transform="translate(85.292 488.792)"><path class="g" d="M5.048,10.733l6.325-1.745s2.461-.5.966-5.328S7.821.171,7.821.171L2.212,1.791,0,2.476,3.116,6.838l.249,2.9Z" transform="matrix(0.914, -0.407, 0.407, 0.914, 32.929, 17.898)"/><path class="g" d="M1.963.966,0,8.88l10.126,9.815.872.218,2.337-.654L15.3,10.344,13.3,8.257l2.056-.53L10.968,3.459l-2.275.5L6.855,2.119,8.1,1.62l.125-.467L6.73,0Z" transform="matrix(0.914, -0.407, 0.407, 0.914, 23.379, 18.892)"/><path class="h" d="M7.353,5.8,6.045,11.03,0,5.3,1.527,0Z" transform="translate(29.984 21.048) rotate(-9)"/><path class="i" d="M.28.966,0,2.056l10.1,9.815.872.218,2.243-.592h.125l.28-1.153L11.622,8.257l2.056-.53L9.285,3.459l-2.275.5L5.172,2.119l1.246-.5.125-.467L5.048,0Z" transform="matrix(0.914, -0.407, 0.407, 0.914, 24.916, 18.208)"/><ellipse class="h" cx="0.561" cy="0.841" rx="0.561" ry="0.841" transform="translate(29.06 17.673) rotate(-100)"/><ellipse class="h" cx="0.561" cy="0.841" rx="0.561" ry="0.841" transform="translate(38.347 22.813) rotate(-100)"/><path class="j" d="M494.525,205.9l-1.371-4.674s3.583-8.537-.561-9.347-4.393,7.976-4.393,7.976l1.651,5.235Z" transform="translate(-450.16 -166.619)"/><ellipse class="j" cx="10.936" cy="10.936" rx="10.936" ry="10.936" transform="translate(7.879 8.346)"/><path class="j" d="M411.12,193.3s.654,8.039,2.243,8.693S399,207.135,399,207.135l4.829-5.453s-2.025-8.35-4.269-10.282Z" transform="translate(-388.753 -166.323)"/><path class="h" d="M487.3,227.861l4.393-.561s5.235,2.742,5.235,6.325,3.022,9.347,3.022,9.347,2.212,7.7-2.742,8.257-9.347-8.257-9.347-8.257Z" transform="translate(-449.54 -191.037)"/><path class="c" d="M412.488,352.544l8.88-6.107A8.608,8.608,0,0,1,431,346.25a4.1,4.1,0,0,1,2.15,3.272c0,4.113-9.067,13.772-9.067,13.772s-6.886,15.143-13.491,15.672a113.528,113.528,0,0,0-12.931,1.932s3.022,11,1.371,14.021-7.976,6.605-8.537,6.325-8.257-7.416-11.56-17.6-5.515-17.885-2.493-18.446C379.461,364.665,412.488,352.544,412.488,352.544Z" transform="translate(-372.236 -271.974)"/><path class="c" d="M530.1,357.193s1.932-.28,1.651,4.393-1.091,21.468-2.493,24.771-1.651,7.166-1.091,8.537,1.651,3.583-.28,3.864-9.908-.841-10.718-1.091,3.3-11,2.742-11.56-1.091-13.491-1.091-13.491Z" transform="translate(-470.027 -280.455)"/><path class="c" d="M527.474,484.871s4.674-1.371,5.234,1.651c0,0,.81,4.674-2.742,6.325a42.544,42.544,0,0,0-6.605,3.864s-5.764,2.212-6.045-.561,1.091-12.65,1.091-12.65Z" transform="translate(-470.178 -367.41)"/><path class="c" d="M427.276,482.666l-8.818-7.166s1.651,8.818-.561,10.469l-1,2.929,2.8,2.306C419.735,491.2,428.366,489.833,427.276,482.666Z" transform="translate(-401.076 -361.903)"/><path class="c" d="M388.032,459.472s5.8,1.651,4.954,7.416c-.81,5.764-1.869,12.058-1.869,12.058s-.312,15.454-4.456,16.576-5.234-1.091-5.234-1.091-4.7-12.089-3.3-15.672c1.683-4.362,4.113-9.254,3.3-10.718S381.956,458.662,388.032,459.472Z" transform="translate(-374.201 -350.828)"/><path class="h" d="M376.64,213.775s2.212.28,5.764.81c3.583.561,6.045-2.212,7.976-1.651s17.885,4.393,17.885,4.393l-1.371,10.594a36.166,36.166,0,0,1-3.022,9.971c-2.337,5.141,1.122,21.25,4.393,24.3,2.867,2.648,6.605,3.3,2.493,7.976s-11.279,8.818-25.861,7.416-16.514-1.091-16.514-3.3,5.2-31.1,3.552-32.747-2.493-3.3-2.493-4.113c0-.561-1.714-6.761-2.867-10.812a11.378,11.378,0,0,1,.872-8.568c.53-.966,1.122-1.714,1.714-1.807,1.932-.28.592-1.651,1.963-1.651s2.212.28,3.022,0Z" transform="translate(-366.112 -181.095)"/><path class="c" d="M409.016,129.585s-.249-13.523-13.523-7.1c0,0-10.189-.374-11.622,12.526L382.5,148.5l1.464-1.122,1,1.527,2.711.28.779-2.368.935,2.617L411.01,148.4s-10.376-4.238-12.027-14.333l2.088,1.651Z" transform="translate(-377.394 -117.687)"/><ellipse class="c" cx="5.421" cy="5.421" rx="5.421" ry="5.421" transform="translate(1.274 1.179)"/><path class="c" d="M391.207,115.366a5.438,5.438,0,0,0-6.107-4.237c.093-.031.218-.062.343-.093a5.414,5.414,0,0,1,2.243,10.594c-.125.031-.218.031-.343.062A5.383,5.383,0,0,0,391.207,115.366Z" transform="translate(-379.184 -110.915)"/></g></g></svg>