<?xml version="1.0" encoding="utf-8"?>
<!-- Generator: Adobe Illustrator 24.2.3, SVG Export Plug-In . SVG Version: 6.00 Build 0)  -->
<svg version="1.1" id="fb02131c-7562-4df1-93b0-5243264cce6d"
	 xmlns="http://www.w3.org/2000/svg" xmlns:xlink="http://www.w3.org/1999/xlink" x="0px" y="0px" viewBox="0 0 250 502"
	 style="enable-background:new 0 0 250 502;" xml:space="preserve">
<style type="text/css">
	.st0{fill:#3F3D56;}
	.st1{fill:#F50057;}
	.st2{fill:none;stroke:#3F3D56;stroke-miterlimit:10;}
	.st3{fill:#FFB6B6;}
	.st4{fill:#2F2E41;}
</style>
<path class="st0" d="M156.1,115.4l20.3-5.6c0,0,7.9-1.6,3.1-17.1C174.7,77.2,165,81.5,165,81.5l-18,5.2l-7.1,2.2l10,14l0.8,9.3
	L156.1,115.4z"/>
<polygon class="st0" points="116.9,74.5 110.6,99.9 143.1,131.4 145.9,132.1 153.4,130 159.7,104.6 153.3,97.9 159.9,96.2 
	145.8,82.5 138.5,84.1 132.6,78.2 136.6,76.6 137,75.1 132.2,71.4 "/>
<polygon class="st1" points="147.4,110.3 143.2,127.1 123.8,108.7 128.7,91.7 "/>
<polygon class="st2" points="116.9,74.5 116,78 148.4,109.5 151.2,110.2 158.4,108.3 158.8,108.3 159.7,104.6 153.3,97.9 
	159.9,96.2 145.8,82.5 138.5,84.1 132.6,78.2 136.6,76.6 137,75.1 132.2,71.4 "/>
<ellipse transform="matrix(0.2429 -0.9701 0.9701 0.2429 27.9743 184.1086)" class="st1" cx="131.9" cy="74.1" rx="1.8" ry="2.7"/>
<ellipse transform="matrix(0.2429 -0.9701 0.9701 0.2429 17.0893 224.5899)" class="st1" cx="152.4" cy="101.3" rx="1.8" ry="2.7"/>
<path class="st3" d="M169.5,147l-4.4-15c0,0,11.5-27.4-1.8-30s-14.1,25.6-14.1,25.6l5.3,16.8L169.5,147z"/>
<circle class="st3" cx="87.5" cy="82.8" r="35.1"/>
<path class="st3" d="M98.9,107.5c0,0,2.1,25.8,7.2,27.9S60,151.9,60,151.9l15.5-17.5c0,0-6.5-26.8-13.7-33L98.9,107.5z"/>
<path class="st1" d="M148.3,139.1l14.1-1.8c0,0,16.8,8.8,16.8,20.3s9.7,30,9.7,30s7.1,24.7-8.8,26.5c-15.9,1.8-30-26.5-30-26.5
	L148.3,139.1z"/>
<path class="st4" d="M156.3,279.5l28.5-19.6c9.2-6.5,21.4-6.7,30.9-0.6c3.9,2.6,6.9,6.1,6.9,10.5c0,13.2-29.1,44.2-29.1,44.2
	s-22.1,48.6-43.3,50.3c-13.9,1.3-27.8,3.3-41.5,6.2c0,0,9.7,35.3,4.4,45c-5.3,9.7-25.6,21.2-27.4,20.3S59.2,412,48.6,379.3
	s-17.7-57.4-8-59.2C50.3,318.4,156.3,279.5,156.3,279.5z"/>
<path class="st4" d="M219.9,267.2c0,0,6.2-0.9,5.3,14.1s-3.5,68.9-8,79.5s-5.3,23-3.5,27.4s5.3,11.5-0.9,12.4s-31.8-2.7-34.4-3.5
	s10.6-35.3,8.8-37.1c-1.8-1.8-3.5-43.3-3.5-43.3L219.9,267.2z"/>
<path class="st4" d="M211,397.9c0,0,15-4.4,16.8,5.3c0,0,2.6,15-8.8,20.3c-7.4,3.5-14.5,7.6-21.2,12.4c0,0-18.5,7.1-19.4-1.8
	s3.5-40.6,3.5-40.6L211,397.9z"/>
<path class="st4" d="M111.2,408.5l-28.3-23c0,0,5.3,28.3-1.8,33.6l-3.2,9.4l9,7.4C87,435.9,114.7,431.5,111.2,408.5z"/>
<path class="st4" d="M71.5,369.6c0,0,18.6,5.3,15.9,23.8c-2.6,18.5-6,38.7-6,38.7s-1,49.6-14.3,53.2s-16.8-3.5-16.8-3.5
	S35.2,443,39.7,431.5c5.4-14,13.2-29.7,10.6-34.4C47.7,392.4,52,367,71.5,369.6z"/>
<path class="st1" d="M60.9,125.8c0,0,7.1,0.9,18.5,2.6c11.5,1.8,19.4-7.1,25.6-5.3s57.4,14.1,57.4,14.1l-4.4,34
	c-1.5,11.1-5.1,21.8-9.7,32c-7.5,16.5,3.6,68.2,14.1,78c9.2,8.5,21.2,10.6,8,25.6s-36.2,28.3-83,23.8s-53-3.5-53-10.6
	s16.7-99.8,11.4-105.1s-8-10.6-8-13.2c0-1.8-5.5-21.7-9.2-34.7c-2.7-9.2-1.7-19.1,2.8-27.5c1.7-3.1,3.6-5.5,5.5-5.8
	c6.2-0.9,1.9-5.3,6.3-5.3s7.1,0.9,9.7,0L60.9,125.8z"/>
<path class="st4" d="M128.6,59.1c0,0-0.8-43.4-43.4-22.8c0,0-32.7-1.2-37.3,40.2l-4.4,43.3l4.7-3.6l3.2,4.9l8.7,0.9l2.5-7.6l3,8.4
	l69.4-3.3c0,0-33.3-13.6-38.6-46l6.7,5.3L128.6,59.1z"/>
<circle class="st4" cx="48.6" cy="42.1" r="17.4"/>
<path class="st4" d="M65.7,35.2c-1.9-9-10.5-14.9-19.6-13.6c0.3-0.1,0.7-0.2,1.1-0.3c9.4-2,18.6,4,20.6,13.4s-4,18.6-13.4,20.6
	c-0.4,0.1-0.7,0.1-1.1,0.2C62.2,53.1,67.6,44.2,65.7,35.2z"/>
</svg>
