<?xml version="1.0" encoding="utf-8"?>
<!-- Generator: Adobe Illustrator 24.0.1, SVG Export Plug-In . SVG Version: 6.00 Build 0)  -->
<svg version="1.1" id="bcf293f5-8fbd-4846-8a1b-f68cbaf5ea67"
	 xmlns="http://www.w3.org/2000/svg" xmlns:xlink="http://www.w3.org/1999/xlink" x="0px" y="0px" viewBox="0 0 891.5 611.2"
	 style="enable-background:new 0 0 891.5 611.2;" xml:space="preserve">
<style type="text/css">
	.st0{fill:#2F2E41;}
	.st1{fill:#A0616A;}
	.st2{fill:#E6E6E6;}
	.st3{opacity:0.1;enable-background:new    ;}
</style>
<title>landscape_mode</title>
<path class="st0" d="M424.4,108.7c0,34.7-14.9,35.8-39.3,35.8s-48.9-1.1-48.9-35.8s19.7-62.9,44.1-62.9S424.4,74,424.4,108.7z"/>
<path class="st1" d="M363.9,110.1c0,0,10.4,43.5,6.6,48.2s32.1,15.1,32.1,15.1l15.1-41.6l-8.5-0.9c0,0-12.3-2.8-8.5-26.5
	S363.9,110.1,363.9,110.1z"/>
<circle class="st1" cx="380.4" cy="91.7" r="30.7"/>
<path class="st0" d="M350.2,264.6l-21.7,18.9c0,0-66.1,24.6-51,62.4s43.5,93.5,43.5,93.5l7.6,18h18.9l12.3-5.7l-2.8-7.6
	c0,0-6.6-10.4-6.6-16.1s-11.3-70.9-18.9-75.6c0,0,37.8-36.9,65.2-38.7s35-8.5,50.1,0s74.6,24.6,74.6,24.6s32.1,58.6,48.2,69
	c16.1,10.4,29.3,45.4,29.3,45.4l26.5-4.7l-13.2-27.4c0,0-13.2-19.8-13.2-28.3s-43.5-90.7-74.6-103.9s-46.3-25.4-46.3-25.4
	l-71.5-19.4L350.2,264.6z"/>
<path class="st0" d="M328.5,444.1c0,0-6.6-4.7-11.3,4.7s-18,31.2-18,31.2s-38.7,29.3-9.4,36.9c0,0,14.2,0.9,38.7-16.1
	c24.6-17,42.5-25.5,43.5-28.3s-5.7-35-12.3-35s-4.7,15.1-12.3,15.1c-5.4,0.1-10.8,0.8-16.1,1.9L328.5,444.1z"/>
<path class="st0" d="M633.8,453.3c-3.6-10.1-14.6-15.4-24.7-11.8c-0.1,0-0.1,0-0.2,0.1c-1.5,0.5-2.4,1.1-2.6,1.7
	c-0.9,2.8-9.5,4.2-10.4,2.6s-7.5-6.4-2.8,11.6s18.9,56.7,26.5,63.3s34,5.7,35.9-0.9s-0.9-18.9-4.7-23.6s-10.4-19.8-11.3-25.5
	C638.9,467.9,636.4,460.5,633.8,453.3z"/>
<path class="st1" d="M464.3,319.9c0,0,7.4,32,22,24.5s-16-37.5-16-37.5L464.3,319.9z"/>
<path class="st1" d="M383,301.9c0,0,7.4,32,22,24.5s-16-37.5-16-37.5L383,301.9z"/>
<path class="st2" d="M455.1,249.5c-10.9,3.4-18.1,3.7-21.6,7.1c-0.4,0.4-0.8,0.9-1.1,1.4c-2.8,4.7-15.1,6.6-31.2,2.8
	c-5.4-1.4-11-1.8-16.5-1.2c-5.5,0.6-11,1.7-21.3,1.2c-17.9-0.9-26.5-59.6-30.6-75.3c-0.2-0.9-0.4-1.6-0.6-2.2
	c-3.8-11.3,16.1-22.7,18.9-25.5s11.3-14.2,19.2-15.4c7.8-1.2,19.6,15.4,19.6,15.4s18.4-22.2,16.5-27.9c-1.9-5.7,18-1.9,21.7-2.8
	c2.1-0.5,11.1,1.8,18.4,3.9c6.3,1.8,10.8,7.3,11.3,13.9c0.1,1.5,0.3,3.2,0.4,5C460.6,180.8,464.5,246.6,455.1,249.5z"/>
<path class="st3" d="M384.7,259.6c-5.5,0.6-11,1.7-21.3,1.2c-17.9-0.9-26.5-59.6-30.6-75.3c0.7-4.9,1.3-7.8,1.3-7.8l5.2,7.1
	c0,0,25,41.1,31.7,52.4C373.7,241.8,379.2,250.6,384.7,259.6z"/>
<path class="st2" d="M339.8,173.9l-8.5,3.8c0,0-11.3,56.7,8.5,85s27.4,33.1,31.2,37.8c2.3,2.8,5.9,4.2,9.4,3.8c0,0-3.8,9.4,2.8,9.4
	s31.2-9.4,24.6-12.3s-13.2-7.6-11.3-12.3s-21.7-40.6-28.3-52S339.8,173.9,339.8,173.9z"/>
<path class="st3" d="M455.1,249.5c-10.9,3.4-18.1,3.7-21.6,7.1c-0.9-9.3-0.8-18.1,0.8-25.1c5.8-24.9,10.2-78.8,9.9-92.1
	c0-1.6,0.3,0.9,1.9,0.9v0.9c7,0,9-2.5,10.9,4.2c0.4,1.3,0.8,2.8,1.2,4.4C460.6,180.8,464.5,246.6,455.1,249.5z"/>
<path class="st2" d="M442.8,134.2h2.9c7,0,13.1,4.6,15.1,11.3c3.6,12.7,6.4,25.7,8.4,38.8c5.7,35,12.3,121.9,11.3,123.8
	s11.3,11.3,5.7,13.2s-16.1,5.7-20.8,6.6s-14.2-8.5-14.2-8.5s-19.8-59.5-13.2-87.9S442.8,134.2,442.8,134.2z"/>
<path class="st0" d="M406.9,69.9c0,9.4-12.9,17-28.8,17s-30.6,5-30.6-4.4s14.6-29.7,30.6-29.7S406.9,60.5,406.9,69.9z"/>
<path class="st0" d="M336.5,114.6c0,0-1.2,31.6,30.3,29.9s-4.3-27.1-4.3-27.1L336.5,114.6z"/>
</svg>
