<svg xmlns="http://www.w3.org/2000/svg" xmlns:xlink="http://www.w3.org/1999/xlink" width="768" height="1024" viewBox="0 0 768 1024">
  <defs>
    <clipPath id="clip-path">
      <rect id="Rectangle_19" data-name="Rectangle 19" width="768" height="1024" fill="#fff" stroke="#707070" stroke-width="1"/>
    </clipPath>
  </defs>
  <g id="Mask_Group_1" data-name="Mask Group 1" clip-path="url(#clip-path)">
    <g id="Group_22" data-name="Group 22" transform="translate(-204.99 105.111)">
      <path id="Path_61" data-name="Path 61" d="M1406.932,3681.3s540.392-290.839,1215.127-180.159-54.789,236.6-54.789,236.6l-644.849,117.821-571.431-94.341Z" transform="translate(-1581 -2737.653)" fill="#dbdbdb"/>
      <g id="ilustrtion_2" data-name="ilustrtion 2" transform="translate(601.329 431.38)">
        <rect id="Rectangle_18" data-name="Rectangle 18" width="101" height="106" transform="translate(24.088 118.509)" fill="#c31248"/>
        <path id="Path_32" data-name="Path 32" d="M377.081,74.954c0,16.084-6.906,16.593-18.216,16.593S336.2,91.038,336.2,74.954,345.331,45.8,356.641,45.8,377.081,58.871,377.081,74.954Z" transform="translate(-307.953 -45.8)" fill="#2f2e41"/>
        <path id="Path_33" data-name="Path 33" d="M363.9,102.088s4.82,20.162,3.059,22.341,14.878,7,14.878,7l7-19.282-3.94-.417s-5.7-1.3-3.94-12.283S363.9,102.088,363.9,102.088Z" transform="translate(-322.814 -72.284)" fill="#a0616a"/>
        <ellipse id="Ellipse_2" data-name="Ellipse 2" cx="14.23" cy="14.23" rx="14.23" ry="14.23" transform="translate(34.504 7.045)" fill="#a0616a"/>
        <path id="Path_34" data-name="Path 34" d="M309.994,253.334l-10.058,8.76S269.3,273.5,276.3,291.016s20.162,43.338,20.162,43.338l3.523,8.343h8.76l5.7-2.642-1.3-3.523s-3.059-4.82-3.059-7.462-5.238-32.862-8.76-35.041c0,0,17.521-17.1,30.221-17.938s16.223-3.94,23.221,0,34.577,11.4,34.577,11.4,14.878,27.161,22.341,31.982,13.581,21.043,13.581,21.043l12.283-2.178-6.118-12.7s-6.118-9.177-6.118-13.117-20.162-42.04-34.577-48.158-21.46-11.773-21.46-11.773l-33.14-8.992Z" transform="translate(-275.257 -151.919)" fill="#2f2e41"/>
        <path id="Path_35" data-name="Path 35" d="M301.855,440.559s-3.059-2.178-5.238,2.179-8.343,14.461-8.343,14.461-17.938,13.581-4.357,17.1c0,0,6.582.417,17.938-7.462,11.4-7.88,19.7-11.819,20.162-13.117s-2.642-16.223-5.7-16.223-2.179,7-5.7,7a40.5,40.5,0,0,0-7.463.881Z" transform="translate(-277.177 -255.946)" fill="#2f2e41"/>
        <path id="Path_36" data-name="Path 36" d="M611.067,446.364a8.953,8.953,0,0,0-11.449-5.469c-.046,0-.046,0-.093.046-.7.232-1.112.51-1.205.788-.417,1.3-4.4,1.947-4.821,1.205s-3.476-2.966-1.3,5.377,8.76,26.281,12.283,29.34,15.759,2.642,16.64-.417-.417-8.76-2.178-10.939-4.821-9.177-5.238-11.819C613.431,453.131,612.272,449.7,611.067,446.364Z" transform="translate(-444.881 -257.486)" fill="#2f2e41"/>
        <path id="Path_37" data-name="Path 37" d="M464.3,312.926s3.43,14.832,10.2,11.356-7.416-17.381-7.416-17.381Z" transform="translate(-376.678 -185.879)" fill="#a0616a"/>
        <path id="Path_38" data-name="Path 38" d="M383,294.926s3.43,14.832,10.2,11.356-7.416-17.381-7.416-17.381Z" transform="translate(-333.061 -176.222)" fill="#a0616a"/>
        <path id="Path_39" data-name="Path 39" d="M388.907,183.609c-5.052,1.576-8.389,1.715-10.012,3.291a3.505,3.505,0,0,0-.51.649c-1.3,2.178-7,3.059-14.461,1.3a21.3,21.3,0,0,0-7.648-.556,50.092,50.092,0,0,1-9.873.556c-8.3-.417-12.283-27.625-14.183-34.9a10.086,10.086,0,0,0-.278-1.02c-1.761-5.238,7.462-10.522,8.76-11.819s5.238-6.582,8.9-7.138c3.615-.556,9.085,7.138,9.085,7.138s8.529-10.29,7.648-12.932,8.343-.881,10.058-1.3c.973-.232,5.145.834,8.528,1.808a7.24,7.24,0,0,1,5.238,6.443c.046.7.139,1.483.185,2.318C391.456,151.766,393.264,182.265,388.907,183.609Z" transform="translate(-305.549 -89.193)" fill="#e6e6e6"/>
        <path id="Path_40" data-name="Path 40" d="M356.856,215.661a50.1,50.1,0,0,1-9.873.556c-8.3-.417-12.283-27.625-14.183-34.9.324-2.271.6-3.615.6-3.615l2.41,3.291s11.588,19.05,14.693,24.288C351.757,207.411,354.307,211.489,356.856,215.661Z" transform="translate(-306.129 -116.564)" opacity="0.1"/>
        <path id="Path_41" data-name="Path 41" d="M333.517,173.9l-3.94,1.761s-5.238,26.281,3.94,39.4,12.7,15.342,14.461,17.52a4.945,4.945,0,0,0,4.357,1.761s-1.761,4.357,1.3,4.357,14.461-4.357,11.4-5.7-6.118-3.523-5.238-5.7-10.058-18.818-13.117-24.1S333.517,173.9,333.517,173.9Z" transform="translate(-303.602 -114.525)" fill="#e6e6e6"/>
        <path id="Path_42" data-name="Path 42" d="M443.207,190.145c-5.052,1.576-8.389,1.715-10.012,3.291a37.941,37.941,0,0,1,.371-11.634c2.688-11.541,4.728-36.524,4.589-42.689,0-.742.139.417.881.417v.417c3.245,0,4.171-1.159,5.052,1.947.185.6.371,1.3.556,2.039C445.756,158.3,447.564,188.8,443.207,190.145Z" transform="translate(-359.849 -95.729)" opacity="0.1"/>
        <path id="Path_43" data-name="Path 43" d="M439.5,134.2h1.344a7.3,7.3,0,0,1,7,5.238,147.866,147.866,0,0,1,3.893,17.984c2.642,16.223,5.7,56.5,5.238,57.382s5.238,5.238,2.642,6.118-7.462,2.642-9.641,3.059-6.582-3.94-6.582-3.94-9.177-27.578-6.118-40.742S439.5,134.2,439.5,134.2Z" transform="translate(-361.846 -93.226)" fill="#e6e6e6"/>
        <path id="Path_44" data-name="Path 44" d="M375.032,60.726c0,4.357-5.979,7.88-13.349,7.88S347.5,70.923,347.5,66.566,354.267,52.8,361.683,52.8,375.032,56.369,375.032,60.726Z" transform="translate(-314.015 -49.555)" fill="#2f2e41"/>
        <path id="Path_45" data-name="Path 45" d="M336.5,114.6s-.556,14.647,14.044,13.859-1.993-12.561-1.993-12.561Z" transform="translate(-308.111 -82.711)" fill="#2f2e41"/>
      </g>
      <g id="illustration1" transform="translate(453.377 555.816)">
        <path id="Path_46" data-name="Path 46" d="M10.94,23.263l13.709-3.782S29.984,18.4,26.743,7.933,16.951.37,16.951.37L4.795,3.881,0,5.367l6.753,9.455.54,6.281Z" transform="matrix(0.914, -0.407, 0.407, 0.914, 71.372, 38.792)" fill="#3f3d56"/>
        <path id="Path_47" data-name="Path 47" d="M4.255,2.094,0,19.247,21.948,40.519l1.891.473L28.9,39.574l4.255-17.153L28.836,17.9l4.457-1.148L23.771,7.5l-4.93,1.081L14.857,4.592l2.7-1.081.27-1.013L14.587,0Z" transform="matrix(0.914, -0.407, 0.407, 0.914, 50.672, 40.947)" fill="#3f3d56"/>
        <path id="Path_48" data-name="Path 48" d="M15.938,12.561,13.1,23.906,0,11.48,3.309,0Z" transform="translate(64.987 45.619) rotate(-9)" fill="#f50057"/>
        <path id="Path_49" data-name="Path 49" d="M.608,2.094,0,4.457,21.88,25.73l1.891.473,4.862-1.283h.27l.608-2.5L25.189,17.9l4.457-1.148L20.125,7.5l-4.93,1.081L11.21,4.592l2.7-1.081.27-1.013L10.94,0Z" transform="matrix(0.914, -0.407, 0.407, 0.914, 54.003, 39.464)" fill="none" stroke="#3f3d56" stroke-miterlimit="10" stroke-width="1"/>
        <ellipse id="Ellipse_3" data-name="Ellipse 3" cx="1.216" cy="1.823" rx="1.216" ry="1.823" transform="translate(62.985 38.304) rotate(-100)" fill="#f50057"/>
        <ellipse id="Ellipse_4" data-name="Ellipse 4" cx="1.216" cy="1.823" rx="1.216" ry="1.823" transform="translate(83.113 49.444) rotate(-100)" fill="#f50057"/>
        <path id="Path_50" data-name="Path 50" d="M501.909,222.335l-2.971-10.13s7.766-18.5-1.216-20.26-9.522,17.288-9.522,17.288l3.579,11.345Z" transform="translate(-405.752 -137.187)" fill="#ffb6b6"/>
        <ellipse id="Ellipse_5" data-name="Ellipse 5" cx="23.704" cy="23.704" rx="23.704" ry="23.704" transform="translate(17.077 18.088)" fill="#ffb6b6"/>
        <path id="Path_51" data-name="Path 51" d="M425.27,195.519s1.418,17.423,4.862,18.841S399,225.5,399,225.5l10.468-11.818s-4.39-18.1-9.252-22.286Z" transform="translate(-376.79 -137.047)" fill="#ffb6b6"/>
        <path id="Path_52" data-name="Path 52" d="M487.3,228.516l9.522-1.216s11.345,5.943,11.345,13.709,6.551,20.26,6.551,20.26,4.795,16.681-5.943,17.9-20.26-17.9-20.26-17.9Z" transform="translate(-405.459 -148.703)" fill="#f50057"/>
        <path id="Path_53" data-name="Path 53" d="M456.244,361.5l19.247-13.236a18.656,18.656,0,0,1,20.868-.405c2.634,1.756,4.66,4.12,4.66,7.091,0,8.914-19.652,29.849-19.652,29.849s-14.925,32.821-29.241,33.969a246.082,246.082,0,0,0-28.026,4.187s6.551,23.839,2.971,30.389-17.288,14.317-18.5,13.709-17.9-16.073-25.054-38.156-11.953-38.764-5.4-39.979C384.66,387.773,456.244,361.5,456.244,361.5Z" transform="translate(-369 -186.875)" fill="#2f2e41"/>
        <path id="Path_54" data-name="Path 54" d="M545.315,357.2s4.187-.608,3.579,9.522-2.364,46.53-5.4,53.688-3.579,15.532-2.364,18.5,3.579,7.766-.608,8.374-21.475-1.823-23.231-2.364,7.158-23.839,5.943-25.054-2.364-29.241-2.364-29.241Z" transform="translate(-415.122 -190.875)" fill="#2f2e41"/>
        <path id="Path_55" data-name="Path 55" d="M539.376,486.471s10.13-2.971,11.345,3.579c0,0,1.756,10.13-5.943,13.709a92.212,92.212,0,0,0-14.317,8.374s-12.493,4.795-13.1-1.216,2.364-27.418,2.364-27.418Z" transform="translate(-415.193 -231.885)" fill="#2f2e41"/>
        <path id="Path_56" data-name="Path 56" d="M439.388,491.032,420.277,475.5s3.579,19.112-1.216,22.691l-2.161,6.348,6.078,5C423.046,509.536,441.752,506.565,439.388,491.032Z" transform="translate(-382.602 -229.288)" fill="#2f2e41"/>
        <path id="Path_57" data-name="Path 57" d="M399.9,459.54s12.561,3.579,10.738,16.073c-1.756,12.493-4.052,26.135-4.052,26.135s-.675,33.5-9.657,35.927-11.345-2.364-11.345-2.364-10.2-26.2-7.158-33.969c3.647-9.455,8.914-20.057,7.158-23.231S386.735,457.784,399.9,459.54Z" transform="translate(-369.927 -224.065)" fill="#2f2e41"/>
        <path id="Path_58" data-name="Path 58" d="M388.93,214.845s4.795.608,12.494,1.756c7.766,1.216,13.1-4.795,17.288-3.579s38.764,9.522,38.764,9.522L454.5,245.5a78.387,78.387,0,0,1-6.551,21.61c-5.065,11.143,2.431,46.057,9.522,52.675,6.213,5.74,14.317,7.158,5.4,17.288s-24.447,19.112-56.052,16.073-35.792-2.364-35.792-7.158,11.278-67.4,7.7-70.976-5.4-7.158-5.4-8.914c0-1.216-3.714-14.654-6.213-23.434a24.661,24.661,0,0,1,1.891-18.571c1.148-2.094,2.431-3.714,3.714-3.917,4.187-.608,1.283-3.579,4.255-3.579s4.795.608,6.551,0Z" transform="translate(-366.112 -144.014)" fill="#f50057"/>
        <path id="Path_59" data-name="Path 59" d="M439.97,139.9s-.54-29.309-29.309-15.4c0,0-22.083-.81-25.189,27.148L382.5,180.888l3.174-2.431,2.161,3.309,5.875.608,1.688-5.132,2.026,5.673,46.867-2.229S421.8,171.5,418.225,149.621l4.525,3.579Z" transform="translate(-371.433 -114.109)" fill="#2f2e41"/>
        <ellipse id="Ellipse_6" data-name="Ellipse 6" cx="11.751" cy="11.751" rx="11.751" ry="11.751" transform="translate(2.76 2.556)" fill="#2f2e41"/>
        <path id="Path_60" data-name="Path 60" d="M398.336,120.562a11.786,11.786,0,0,0-13.236-9.184c.2-.068.473-.135.743-.2a11.735,11.735,0,0,1,4.862,22.961c-.27.068-.473.068-.743.135A11.666,11.666,0,0,0,398.336,120.562Z" transform="translate(-372.277 -110.915)" fill="#2f2e41"/>
      </g>
    </g>
  </g>
</svg>
